HIERARCHY
ROOT Hips
{
	OFFSET 0.00000 0.00000 0.00000
	CHANNELS 6 Xposition Yposition Zposition Zrotation Yrotation Xrotation 
	JOINT RightUpLegDummy
	{
		OFFSET 0 0 0
		CHANNELS 3 Zrotation Yrotation Xrotation
		JOINT RightUpLeg
		{
			OFFSET -3.52197 -3.41223 0.04002
			CHANNELS 3 Zrotation Yrotation Xrotation
			JOINT RightLeg
			{
				OFFSET 0.00006 -17.42390 1.60435
				CHANNELS 3 Zrotation Yrotation Xrotation
				JOINT RightFoot
				{
					OFFSET 0.06153 -16.50078 -1.63901
					CHANNELS 3 Zrotation Yrotation Xrotation
					JOINT RightToes
					{
						OFFSET 0.00298 -1.73825 3.34613
						CHANNELS 3 Zrotation Yrotation Xrotation
						End Site
						{
							OFFSET 0.00480 -0.05416 3.85043
						}
					}
				}
			}
		}
	}
	JOINT SpineDummy
	{
		OFFSET 0 0 0
		CHANNELS 3 Zrotation Yrotation Xrotation
		JOINT Spine
		{
			OFFSET 0.00000 4.68130 0.00000
			CHANNELS 3 Zrotation Yrotation Xrotation
			JOINT Spine1
			{
				OFFSET -0.00000 10.10138 0.05002
				CHANNELS 3 Zrotation Yrotation Xrotation
				JOINT HEadDummy
				{
					OFFSET 0 0 0
					CHANNELS 3 Zrotation Yrotation Xrotation
					JOINT Head
					{
						OFFSET -0.00000 3.43865 0.00438
						CHANNELS 3 Zrotation Yrotation Xrotation
						End Site
						{
							OFFSET -0.11417 5.02924 0.98962
						}
					}
				}
				JOINT LeftShoulder1Dummy
				{
					OFFSET 0 0 0
					CHANNELS 3 Zrotation Yrotation Xrotation
					JOINT LeftShoulder1
					{
						OFFSET 3.53937 -0.14262 -0.08662
						CHANNELS 3 Zrotation Yrotation Xrotation
						JOINT LeftArm
						{
							OFFSET 4.04833 -0.00133 0.12681
							CHANNELS 3 Zrotation Yrotation Xrotation
							JOINT LeftForeArm
							{
								OFFSET 10.33880 -0.01036 -0.55515
								CHANNELS 3 Zrotation Yrotation Xrotation
								JOINT LeftHand
								{
									OFFSET 8.69677 0.07543 0.40060
									CHANNELS 3 Zrotation Yrotation Xrotation
									End Site
									{
										OFFSET 5.28377 -0.21905 0.59205
									}
								}
							}
						}
					}
				}
				JOINT RightShoulderDummy
				{
					OFFSET 0 0 0
					CHANNELS 3 Zrotation Yrotation Xrotation
					JOINT RightShoulder
					{
						OFFSET -3.53937 -0.14262 -0.08660
						CHANNELS 3 Zrotation Yrotation Xrotation
						JOINT RightArm
						{
							OFFSET -4.04833 -0.00133 0.12683
							CHANNELS 3 Zrotation Yrotation Xrotation
							JOINT RightForeArm
							{
								OFFSET -10.37987 -0.01039 -0.55511
								CHANNELS 3 Zrotation Yrotation Xrotation
								JOINT RightHand
								{
									OFFSET -8.67398 0.07538 0.40058
									CHANNELS 3 Zrotation Yrotation Xrotation
									End Site
									{
										OFFSET -5.24810 -0.21916 0.59204
									}
								}
							}
						}
					}
				}
			}
		}
	}
	JOINT LeftUpLegDummy
	{
		OFFSET 0 0 0
		CHANNELS 3 Zrotation Yrotation Xrotation
		JOINT LeftUpLeg
		{
			OFFSET 3.52197 -3.41223 0.04002
			CHANNELS 3 Zrotation Yrotation Xrotation
			JOINT LeftLeg
			{
				OFFSET -0.00012 -17.42399 1.60337
				CHANNELS 3 Zrotation Yrotation Xrotation
				JOINT LeftFoot
				{
					OFFSET -0.09972 -16.50070 -1.63802
					CHANNELS 3 Zrotation Yrotation Xrotation
					JOINT LeftToes
					{
						OFFSET -0.01575 -1.73823 3.34611
						CHANNELS 3 Zrotation Yrotation Xrotation
						End Site
						{
							OFFSET 0.03150 -0.01868 3.85031
						}
					}
				}
			}
		}
	}
}
MOTION
Frames: 11
Frame Time: 0.033333
18.2685 38.2870 28.1725 -3.7039 30.0837 -9.7680 0.0000 0.0000 0.0000 8.1530 -0.0985 -8.2099 -2.6655 -8.4446 23.4254 -0.0761 -0.0349 -9.6646 0.0000 -0.0000 0.0000 0.0000 0.0000 0.0000 3.6517 -0.3565 14.2523 2.5592 -0.5408 -3.9439 -0.0000 0.0000 -0.0000 -1.1547 -1.7637 5.9995 -0.0000 0.0000 -0.0000 -34.9244 -2.8465 2.6014 -40.8477 -14.1944 -20.0997 -9.9370 5.2774 42.8012 14.4412 -3.7728 -1.1112 -0.0000 0.0000 -0.0000 34.2767 5.1394 3.4823 39.0003 2.7765 -17.2163 10.6203 2.1381 21.2310 -10.9209 2.4351 -0.7163 0.0000 0.0000 0.0000 6.6577 9.1860 -11.2382 7.5528 2.4288 64.7852 3.5395 -0.4132 1.5998 0.0000 0.0000 -0.0000
18.7995 38.3649 29.1878 -2.8674 29.2523 -9.5017 0.0000 0.0000 0.0000 7.6736 -0.5084 -6.2870 -2.3689 -7.3688 23.8480 -0.9371 -0.0394 -11.1990 0.0000 -0.0000 0.0000 0.0000 0.0000 0.0000 3.2370 0.1908 14.2469 2.0290 0.0853 -3.7852 -0.0000 0.0000 -0.0000 -1.3010 -1.7823 6.6033 -0.0000 0.0000 -0.0000 -34.8733 -2.8128 2.5844 -40.5777 -13.8104 -20.0594 -10.2019 5.3375 40.2269 15.3518 -3.6145 -1.1643 -0.0000 0.0000 -0.0000 34.2212 5.1318 3.4743 38.8119 4.7049 -15.7082 10.9571 4.1336 20.3905 -11.1239 2.6987 -0.7533 0.0000 0.0000 0.0000 5.4296 8.6219 -14.0901 7.6967 2.9812 61.5216 4.3632 -0.4113 -0.5277 0.0000 0.0000 -0.0000
19.3477 38.4419 30.2058 -2.1476 28.8384 -9.2229 0.0000 0.0000 0.0000 7.1157 -0.9336 -4.2398 -2.1693 -6.5713 23.9129 -0.9538 -0.0598 -12.8554 0.0000 -0.0000 0.0000 0.0000 0.0000 0.0000 2.7859 0.4947 14.0006 1.6759 0.4255 -3.4383 -0.0000 0.0000 -0.0000 -1.5099 -1.6429 6.8170 -0.0000 0.0000 -0.0000 -34.9221 -2.8453 2.6008 -40.2586 -13.5699 -19.8912 -10.4115 5.3560 39.3218 15.5513 -3.6399 -1.1832 -0.0000 0.0000 -0.0000 34.1116 5.1179 3.4592 38.7650 6.4619 -13.4181 11.0662 6.6283 18.4718 -11.3664 2.7746 -0.7772 0.0000 0.0000 0.0000 4.3072 7.6783 -16.3311 8.0569 4.0683 56.1475 4.3281 -0.3306 -2.2638 0.0000 0.0000 -0.0000
19.9213 38.5344 31.2107 -1.6760 28.6872 -8.9322 0.0000 0.0000 0.0000 6.6785 -1.2832 -1.9528 -2.0300 -6.0737 23.2374 -0.8633 -0.0745 -14.2114 0.0000 -0.0000 0.0000 0.0000 0.0000 0.0000 2.6231 0.6327 13.5667 1.3111 0.6146 -3.0548 -0.0000 0.0000 -0.0000 -1.7289 -1.5509 6.9303 -0.0000 0.0000 -0.0000 -35.0407 -2.8893 2.6265 -39.9922 -13.5630 -19.9097 -10.3737 5.3388 40.0779 15.1676 -3.7253 -1.1635 -0.0000 0.0000 -0.0000 33.7713 5.0668 3.4093 39.1471 7.8364 -9.3430 10.5434 9.7179 14.7106 -11.3888 2.7727 -0.7786 0.0000 0.0000 0.0000 3.4389 6.5257 -17.9349 8.9537 6.1100 49.0274 3.8610 -0.2824 -2.5144 0.0000 0.0000 -0.0000
20.5055 38.6552 32.1874 -1.4703 28.6902 -8.6419 0.0000 0.0000 0.0000 6.4327 -1.5390 0.6010 -1.9502 -5.9976 21.6176 -0.9008 -0.0851 -15.0883 0.0000 -0.0000 0.0000 0.0000 0.0000 0.0000 2.7080 0.6643 13.0407 0.9677 0.7072 -2.7024 -0.0000 0.0000 -0.0000 -1.8831 -1.5363 7.0910 -0.0000 0.0000 -0.0000 -35.1841 -2.8871 2.6350 -39.8486 -13.6692 -20.0689 -10.2189 5.3139 41.2026 14.7176 -3.7615 -1.1320 -0.0000 0.0000 -0.0000 33.4466 5.0163 3.3613 39.6310 8.7553 -3.7898 9.2428 13.0667 9.3700 -11.2142 2.8171 -0.7702 0.0000 0.0000 0.0000 2.8160 5.3994 -18.7412 9.6207 9.0157 40.4861 3.3211 -0.2604 -1.9739 0.0000 0.0000 -0.0000
21.0884 38.8006 33.1441 -1.4472 28.7793 -8.2481 0.0000 0.0000 0.0000 6.3040 -1.7306 3.2656 -1.8040 -6.0937 19.1838 -0.6713 -0.0822 -15.5367 0.0000 -0.0000 0.0000 0.0000 0.0000 0.0000 2.8330 0.6679 12.3508 0.7414 0.7472 -2.3591 -0.0000 0.0000 -0.0000 -1.9198 -1.5155 7.2179 -0.0000 0.0000 -0.0000 -35.2594 -2.8382 2.6197 -39.9032 -13.6707 -20.1261 -10.1591 5.3005 41.7798 14.4975 -3.7817 -1.1168 -0.0000 0.0000 -0.0000 33.4239 5.0118 3.3576 39.8135 9.2430 2.2514 7.3980 16.1209 3.3400 -11.0960 2.9005 -0.7691 0.0000 0.0000 0.0000 2.2079 4.9636 -18.7510 8.6447 11.4292 30.5637 2.7845 -0.2052 -2.3464 0.0000 0.0000 -0.0000
21.6680 38.9779 34.0777 -1.4850 28.7460 -7.6941 0.0000 0.0000 0.0000 6.1696 -1.9062 6.0102 -1.4530 -5.9156 16.0202 -0.4624 -0.0727 -15.3309 0.0000 -0.0000 0.0000 0.0000 0.0000 0.0000 2.9426 0.7558 11.5524 0.5736 0.8535 -2.0921 -0.0000 0.0000 -0.0000 -1.8545 -1.4468 7.2974 -0.0000 0.0000 -0.0000 -35.2513 -2.7868 2.5980 -40.1665 -13.4182 -20.1427 -10.1488 5.2953 41.9972 14.3531 -3.8777 -1.1164 -0.0000 0.0000 -0.0000 33.6343 5.0414 3.3874 39.6971 9.4395 7.0189 5.7636 18.2124 -1.3589 -11.0163 2.9018 -0.7635 0.0000 0.0000 0.0000 1.4052 5.6494 -18.0636 5.7205 11.7287 19.4063 1.9486 -0.1160 -3.3524 0.0000 0.0000 -0.0000
22.2656 39.1238 34.9872 -1.5219 28.4452 -7.1369 0.0000 0.0000 0.0000 5.9281 -2.2102 8.6263 -1.0019 -5.3418 13.0365 -0.8121 -0.0800 -14.8536 0.0000 -0.0000 0.0000 0.0000 0.0000 0.0000 3.1352 0.9277 10.8604 0.3278 1.0593 -1.9551 -0.0000 0.0000 -0.0000 -1.7324 -1.3810 7.4064 -0.0000 0.0000 -0.0000 -35.2772 -2.7698 2.5926 -40.4811 -12.9363 -20.4019 -9.9981 5.2870 42.4011 14.0413 -4.0317 -1.1087 -0.0000 0.0000 -0.0000 33.8106 5.0649 3.4119 39.5744 9.5824 9.1517 5.1534 18.9289 -2.9735 -10.7686 2.7643 -0.7340 0.0000 0.0000 0.0000 1.1639 5.1850 -16.7547 2.3420 11.9669 8.5490 0.1008 0.0170 -3.8957 0.0000 0.0000 -0.0000
22.9220 39.1314 35.9164 -1.6144 28.1051 -6.7759 0.0000 0.0000 0.0000 5.5689 -2.8328 10.6870 -0.6783 -4.5831 11.6973 -1.1816 -0.0944 -15.0898 0.0000 -0.0000 0.0000 0.0000 0.0000 0.0000 3.4772 1.0226 10.2831 -0.0082 1.2053 -1.8294 -0.0000 0.0000 -0.0000 -1.6164 -1.3961 7.5038 -0.0000 0.0000 -0.0000 -35.3956 -2.7794 2.6042 -40.6832 -12.3797 -20.8224 -9.7506 5.2722 43.0954 13.6117 -4.1182 -1.0830 -0.0000 0.0000 -0.0000 33.8332 5.0682 3.4152 39.6222 9.7545 8.5870 5.6934 18.3579 -1.4851 -10.5199 2.6549 -0.7072 0.0000 0.0000 0.0000 1.9690 1.4671 -15.3938 0.1177 14.6840 0.8617 -2.5958 0.1828 -4.3812 0.0000 0.0000 -0.0000
23.6473 39.0149 36.8999 -1.8050 28.0399 -6.6379 0.0000 0.0000 0.0000 5.0961 -3.8909 12.2219 -0.5080 -3.6069 12.0881 -0.7728 -0.0886 -15.8404 0.0000 -0.0000 0.0000 0.0000 0.0000 0.0000 3.8777 0.9597 9.7292 -0.3065 1.1805 -1.6448 -0.0000 0.0000 -0.0000 -1.5943 -1.5294 7.5037 -0.0000 0.0000 -0.0000 -35.5277 -2.7834 2.6143 -40.7771 -11.9162 -21.0614 -9.5980 5.2527 43.9185 13.2556 -4.0581 -1.0471 -0.0000 0.0000 -0.0000 33.8182 5.0687 3.4141 39.7049 9.6958 6.1701 6.8883 16.9869 1.8038 -10.6736 2.7806 -0.7288 0.0000 0.0000 0.0000 1.2054 0.5339 -14.9728 0.0954 13.2729 -1.3590 -4.2950 0.2706 -4.9917 0.0000 0.0000 -0.0000
24.4266 38.8498 37.9481 -1.9047 28.0934 -6.6212 0.0000 0.0000 0.0000 4.2446 -5.5281 13.4573 -0.2998 -1.7813 13.8000 0.0293 -0.0588 -16.2254 0.0000 -0.0000 0.0000 0.0000 0.0000 0.0000 4.0496 0.9300 9.1660 -0.4286 1.1485 -1.4240 -0.0000 0.0000 -0.0000 -1.6783 -1.7394 7.5177 -0.0000 0.0000 -0.0000 -35.6548 -2.7729 2.6181 -40.8245 -11.6419 -21.2310 -9.4601 5.2277 44.9237 12.9737 -3.9105 -1.0085 -0.0000 0.0000 -0.0000 33.9686 5.0921 3.4365 39.5408 9.0857 2.7779 8.2796 15.1823 5.6722 -11.1087 3.0295 -0.7814 0.0000 0.0000 0.0000 0.3137 -0.2769 -15.1732 0.6708 10.9228 0.9466 -3.2807 0.2242 -4.1921 0.0000 0.0000 -0.0000
